<?xml version="1.0" encoding="utf-8"?>
<!-- Generator: Adobe Illustrator 28.0.0, SVG Export Plug-In . SVG Version: 6.00 Build 0)  -->
<svg version="1.1" id="Layer_1" xmlns:sketch="http://www.bohemiancoding.com/sketch/ns"
	 xmlns="http://www.w3.org/2000/svg" xmlns:xlink="http://www.w3.org/1999/xlink" x="0px" y="0px" viewBox="0 0 800 800"
	 style="enable-background:new 0 0 800 800;" xml:space="preserve">
<style type="text/css">
	.st0{fill-rule:evenodd;clip-rule:evenodd;}
	.st1{fill-rule:evenodd;clip-rule:evenodd;stroke:#000000;stroke-width:9;stroke-miterlimit:10;}
</style>
<g id="Page-1" sketch:type="MSPage">
	<g id="Icon-Set-Filled" transform="translate(-583.000000, -101.000000)" sketch:type="MSLayerGroup">
		<path id="pencil" sketch:type="MSShapeGroup" class="st0" d="M773.6,667.6l141-51.2L803.7,310.9l-141,51.2L773.6,667.6z
			 M929.5,877.2l2.2-213.8l-141,51.2L929.5,877.2L929.5,877.2z M680,116.5l-47,17.1c-38.7,13.1-41.1,37.3-29.9,64.1l42.7,117.5
			l141-51.2L744,146.4C733.9,117.9,718.5,102.7,680,116.5L680,116.5z"/>
	</g>
</g>
<g id="Page-1_00000106855338954530463200000005850717703986813870_" sketch:type="MSPage">
	
		<g id="Icon-Set-Filled_00000049935341454755341820000008317250168559397566_" transform="translate(-583.000000, -101.000000)" sketch:type="MSLayerGroup">
		<path id="pencil_00000121973114813667546390000010948665444358702230_" sketch:type="MSShapeGroup" class="st0" d="M1060.2,616
			l141.3,50.3l109.1-306.1l-141.3-50.3L1060.2,616z M1046.9,876.9l137.8-163.4l-141.3-50.3L1046.9,876.9L1046.9,876.9z M1339,131.5
			l-47.1-16.8c-38.1-14.6-55.4,2.6-63.9,30.3l-42,117.7l141.3,50.3l42-117.7C1379.6,166.9,1377.4,145.4,1339,131.5L1339,131.5z"/>
	</g>
</g>
<line class="st1" x1="400" y1="800" x2="400" y2="0"/>
</svg>
