<?xml version="1.0" encoding="utf-8"?>
<!-- Generator: Adobe Illustrator 28.0.0, SVG Export Plug-In . SVG Version: 6.00 Build 0)  -->
<svg version="1.1" id="Layer_1" xmlns:sketch="http://www.bohemiancoding.com/sketch/ns"
	 xmlns="http://www.w3.org/2000/svg" xmlns:xlink="http://www.w3.org/1999/xlink" x="0px" y="0px" viewBox="0 0 800 800"
	 style="enable-background:new 0 0 800 800;" xml:space="preserve">
<style type="text/css">
	.st0{fill-rule:evenodd;clip-rule:evenodd;}
</style>
<g id="Page-1" sketch:type="MSPage">
	<g id="Icon-Set-Filled" transform="translate(-583.000000, -101.000000)" sketch:type="MSLayerGroup">
		<path id="pencil" sketch:type="MSShapeGroup" class="st0" d="M758,651h150V326H758V651z M833,901.2L908,701H758L833,901.2
			L833,901.2z M858,101h-50c-40.8-0.9-51.3,21-50,50v125h150V151C908.2,120.7,898.9,101.2,858,101L858,101z"/>
	</g>
</g>
<g id="Page-1_00000106855338954530463200000005850717703986813870_" sketch:type="MSPage">
	
		<g id="Icon-Set-Filled_00000049935341454755341820000008317250168559397566_" transform="translate(-583.000000, -101.000000)" sketch:type="MSLayerGroup">
		<path id="pencil_00000121973114813667546390000010948665444358702230_" sketch:type="MSShapeGroup" class="st0" d="M1058.2,649.8
			h150v-325h-150V649.8z M1133.2,900.1l75-200.2h-150L1133.2,900.1L1133.2,900.1z M1158.2,99.8h-50c-40.8-0.9-51.3,21-50,50v125h150
			v-125C1208.3,119.6,1199,100.1,1158.2,99.8L1158.2,99.8z"/>
	</g>
</g>
</svg>
